<svg xmlns="http://www.w3.org/2000/svg" width="22.25" height="17.709"><path d="M13.627 1.475c-.224.11-.394.385-.438.697a.772.772 0 00.01.358c.07.33.222.571.578.912.223.214.39.429.49.629.111.221.2.482.2.587 0 .039.011.144.025.232.024.16.004.492-.04.641-.148.479-.174.529-.355.756a5.212 5.212 0 01-.662.635c-.082.062-.236.183-.344.272s-.262.21-.343.268a3.56 3.56 0 00-.274.208 2.807 2.807 0 01-.605.379c-.068.026-.184.08-.254.119-.084.044-.141.062-.151.048a.779.779 0 01-.026-.221l-.008-.201.08-.123c.043-.066.102-.166.129-.22.062-.113.117-.152.174-.119.1.051.137.003.072-.093-.021-.03-.027-.065-.02-.086a.483.483 0 00.02-.119.862.862 0 01.076-.235c.038-.085.087-.21.107-.276a.8.8 0 01.057-.149.267.267 0 00.018-.121.742.742 0 01.02-.188c.018-.078.035-.341.038-.597a3.415 3.415 0 00-.116-.636.634.634 0 00-.156-.239c-.021-.015-.082-.064-.141-.113s-.129-.103-.16-.116c-.102-.051-.129-.086-.13-.155 0-.086-.032-.104-.09-.051-.058.056-.075.054-.293-.007-.174-.051-.275-.111-.275-.166 0-.041-.071-.071-.099-.045a.081.081 0 00-.023.049c0 .043-.129.107-.267.133-.256.048-.254.048-.295.003-.063-.068-.113-.055-.126.035-.007.043-.026.088-.046.102-.021.01-.078.045-.137.075a1.543 1.543 0 00-.324.23c-.094.097-.188.308-.215.49a1.167 1.167 0 01-.052.216c-.034.067-.024 1.026.009 1.117.067.174.191.602.192.656 0 .041-.019.08-.051.111-.088.082-.055.135.058.094.067-.026.062-.033.193.243.091.19.119.357.062.358-.061 0-.316-.354-.418-.568A1.298 1.298 0 019.25 7.1a.959.959 0 00-.042-.168 1.193 1.193 0 01-.041-.216 5.906 5.906 0 00-.039-.297 27.009 27.009 0 01-.056-.367c-.042-.283-.121-.604-.19-.759a1.068 1.068 0 00-.264-.397c-.16-.161-.262-.208-.498-.229-.122-.012-.14-.008-.304.077a.717.717 0 00-.172.107c0 .009-.012.017-.025.017-.03 0-.141.111-.324.321-.159.184-.327.504-.426.817a2.513 2.513 0 00-.078.484c.001.133.068.284.155.341.131.092.198.02.1-.107-.054-.072-.056-.078-.043-.263.016-.237.036-.312.174-.62.02-.045.041-.099.047-.118.01-.019.022-.034.033-.034.01 0 .03-.033.043-.072a.212.212 0 01.073-.104.21.21 0 00.062-.076c.019-.059.223-.261.264-.262.018 0 .045-.022.062-.052.02-.028.045-.052.058-.052s.06-.019.104-.041c.088-.046.163-.053.184-.02.007.011.035.02.062.02.035 0 .061.02.082.062a.24.24 0 00.059.075.45.45 0 01.076.149c.047.125.049.158.051.574 0 .242-.012.558-.023.698-.02.196-.02.332-.002.558.025.328.054.464.13.619.114.227.334.608.402.696a.267.267 0 01.048.097c0 .068-.218.071-.349.008a.353.353 0 00-.143-.034.22.22 0 01-.129-.04.216.216 0 00-.093-.041c-.07.001-.433-.134-.552-.205-.109-.061-.631-.577-.725-.712-.088-.127-.172-.299-.318-.644a1.353 1.353 0 01-.118-.728c.01-.185.022-.257.061-.328.065-.128.195-.319.279-.408.114-.121.306-.383.36-.491a2.33 2.33 0 00.168-.486 2.303 2.303 0 00-.015-.574c-.015-.066-.03-.178-.04-.244-.01-.092-.047-.188-.136-.362a1.344 1.344 0 00-.319-.442 1.318 1.318 0 00-.399-.308c-.245-.13-.363-.15-.537-.09a.506.506 0 00-.224.153c-.152.16-.203.328-.201.654.002.243.023.354.113.574.059.146.078.168.143.159.062-.009.062-.037.013-.282a1.832 1.832 0 01-.01-.611.428.428 0 01.202-.287c.096-.052.205-.061.24-.018a.18.18 0 00.084.043c.033.008.066.03.072.053a.13.13 0 00.059.062c.08.041.138.105.138.152 0 .026.017.052.037.059.043.014.118.133.11.174-.004.013.014.046.035.071.055.057.09.15.074.197-.007.024.004.063.03.093.047.06.056.15.02.211-.019.028-.017.048.01.087.051.066.045.133-.018.213-.047.062-.049.074-.022.126.037.072.031.088-.059.179-.062.063-.07.078-.049.114.026.052.013.082-.04.082-.041.001-.133.1-.152.167-.011.029-.03.04-.059.036-.053-.008-.141.084-.171.178-.015.043-.035.064-.07.068-.062.009-.21.192-.193.245.006.025-.021.06-.092.114-.102.078-.145.162-.102.205.047.047.026.116-.05.149-.117.05-.176.229-.09.274.029.017.041.043.041.112 0 .051-.009.092-.019.092-.026 0-.084.132-.084.195 0 .033.019.069.048.092.047.04.049.069.033.417-.004.08.002.105.039.133.08.063.116.168.12.332.003.179.016.218.096.257.079.041.201.264.197.36a.196.196 0 00.14.189c.064.016.258.27.258.339 0 .074.098.162.205.186a.568.568 0 01.217.136.632.632 0 01.133.139c0 .039.063.084.154.112.122.036.275.107.284.133.023.057-.18.331-.328.439a4.697 4.697 0 00-.175.135c-.239.188-.673.37-1.108.469-.23.052-.795.076-.979.042-.386-.07-.527-.114-.665-.202-.229-.148-.294-.243-.294-.428-.002-.122.027-.226.132-.443a.28.28 0 00.028-.08c0-.011.059-.142.13-.289.229-.479.26-.562.298-.792.047-.267.007-.604-.093-.791-.055-.1-.312-.329-.456-.401a4.357 4.357 0 00-.431-.16c-.104-.032-.18-.04-.44-.039-.379-.001-.576.041-.876.183-.245.119-.575.398-.709.604-.148.227-.193.358-.193.571.002.233.032.391.088.448.096.102.129.049.146-.218.014-.2.057-.373.105-.414.017-.013.027-.043.027-.067 0-.026.023-.067.053-.097a.304.304 0 00.071-.097.139.139 0 01.08-.067.234.234 0 00.102-.092c.025-.045.058-.07.086-.07.025 0 .068-.027.101-.064.04-.048.069-.064.116-.062a.146.146 0 00.109-.049c.035-.037.067-.05.131-.05a.253.253 0 00.123-.029c.064-.045.166-.062.215-.035.035.019.055.017.089-.007.052-.033.165-.024.233.021.03.021.055.023.08.01.049-.028.176.006.219.061.027.031.059.043.104.041a.248.248 0 01.208.12c.012.026.046.053.073.055.072.011.102.041.103.103 0 .031.016.074.03.097.042.054.04.091-.013.144-.032.037-.036.051-.015.085.035.057.01.145-.063.213-.046.041-.062.076-.06.115a.609.609 0 01.002.082c-.004.036-.125.17-.154.17-.031 0-.053.046-.051.112 0 .067-.097.229-.177.295-.05.041-.069.07-.069.117a.54.54 0 01-.151.312c-.052.042-.054.052-.04.159.018.125-.012.223-.077.277-.038.029-.038.039-.012.107a.578.578 0 00.084.14c.062.065.071.118.036.179-.02.03-.012.056.045.133.037.054.089.103.113.107.066.018.104.1.072.16-.022.041-.021.058.024.127.073.116.11.146.159.113a.149.149 0 01.062-.024c.041 0 .162.103.162.136 0 .092.18.227.232.173.055-.055.252.008.306.1.032.059.149.122.217.122a.127.127 0 00.065-.03c.029-.026.062-.028.173-.02.116.012.146.021.205.081.06.058.086.069.164.069.073 0 .103-.012.143-.057.041-.045.074-.056.175-.063.11-.01.131-.005.188.045.104.083.281.058.338-.049.023-.05.049-.062.174-.085.133-.024.151-.024.207.008.114.066.315-.017.354-.146.011-.03.052-.06.142-.093a.868.868 0 00.154-.066c.018-.014.034-.012.049.003.067.066.276-.016.325-.129.037-.081.236-.192.355-.195.045 0 .104-.002.133-.006.045-.008.051-.001.045.055-.01.121-.151.433-.269.596-.126.176-.483.872-.569 1.108l-.086.236c-.026.076-.07.219-.095.318l-.062.254c-.041.152-.08.408-.08.498 0 .054-.018.164-.04.246-.034.13-.038.197-.031.537.008.33.021.442.076.737.038.189.075.365.084.389.146.381.245.542.394.636.076.047.092.049.457.048.303-.001.381-.007.401-.029a.8.8 0 01.17-.106c.153-.081.339-.233.565-.464.129-.129.223-.272.547-.829.07-.125.136-.229.145-.236a.333.333 0 00.042-.082c.056-.138.153-.308.318-.548.094-.138.237-.395.334-.59.157-.326.168-.358.187-.533.035-.342.006-.629-.087-.883a3.463 3.463 0 00-.272-.509c-.067-.095-.092-.114-.141-.114-.082 0-.098.035-.113.276-.02.304-.064.542-.181.923a2.114 2.114 0 00-.069.349c-.063.613-.101 1.022-.1 1.152 0 .105-.023.161-.195.439-.207.342-.66.963-.703.963a.277.277 0 00-.084.06c-.037.031-.09.066-.118.074s-.069.03-.093.052c-.055.049-.121.082-.168.082-.021 0-.049.019-.062.042-.018.03-.047.041-.114.041-.049 0-.094.009-.098.019-.003.012-.039.004-.078-.016-.048-.021-.074-.05-.078-.082a.295.295 0 00-.035-.093c-.033-.057-.041-.612-.015-.841.028-.211.076-.459.099-.502.012-.02.034-.106.053-.196.021-.091.041-.188.047-.216a.5.5 0 01.047-.117c.021-.034.055-.131.079-.215.024-.082.057-.191.075-.242a4.73 4.73 0 01.369-.749c.055-.08.166-.259.248-.4s.219-.339.303-.44c.086-.103.17-.202.187-.226.054-.07.618-.656.683-.705.078-.06.154-.075.293-.059.119.015.14.028.242.176.098.14.235.29.307.335.035.022.086.062.115.088.027.026.07.058.099.066a.143.143 0 01.065.068c.015.036.039.055.096.062.136.022.15.03.166.098.018.065.02.065.164.075.135.009.152.018.176.062.021.047.039.051.199.061.096.006.232.003.307-.008l.369-.036c.129-.013.295-.031.367-.046.123-.024.135-.031.145-.089.008-.051.021-.062.092-.076.162-.033.172-.037.178-.084.004-.035.024-.05.089-.062.131-.029.181-.061.198-.132.013-.05.033-.069.072-.08.104-.021.147-.049.147-.086 0-.049.088-.131.19-.176.055-.024.074-.048.074-.083 0-.062.036-.096.112-.097a.223.223 0 00.104-.03c.051-.04.15-.04.18-.001.013.02.07.036.13.042.106.016.138.043.179.179.006.021.039.041.076.049.07.015.201.17.203.243.001.023.033.079.076.123a.842.842 0 01.183.367.28.28 0 00.051.129.226.226 0 01.042.089c0 .017.006.036.016.043.023.023.106.288.108.344 0 .029.019.09.041.138a.424.424 0 01.042.126c0 .025.01.062.021.082a.677.677 0 01.027.168.601.601 0 00.028.17c.037.072.044.215.026.514-.031.514-.045.609-.101.689a.267.267 0 00-.038.141c0 .09-.027.164-.074.189-.016.011-.027.052-.027.1.001.062-.012.095-.051.13-.028.025-.051.062-.051.08 0 .09-.097.062-.179-.054a2.328 2.328 0 00-.274-.311 1.825 1.825 0 01-.323-.353c-.109-.16-.272-.473-.272-.52a.203.203 0 00-.019-.076c-.011-.018-.037-.1-.062-.178-.022-.08-.062-.202-.084-.276a2.958 2.958 0 01-.129-.604c-.027-.258-.057-.323-.139-.313-.131.016-.262.452-.338 1.155-.059.521-.028.75.15 1.137.057.124.059.126.188.354.058.104.12.182.175.223.081.057.346.189.538.267.271.107.667.14.815.064.103-.052.363-.309.427-.424.145-.252.267-.623.36-1.087.072-.352.092-.634.062-.901-.07-.619-.058-.551-.181-.932-.024-.08-.059-.194-.071-.256a.642.642 0 00-.042-.134 2.275 2.275 0 00-.167-.396 1.164 1.164 0 01-.103-.226.113.113 0 00-.021-.058c-.027-.026-.037-.045-.148-.247-.117-.213-.492-.554-.714-.65a1.62 1.62 0 00-.579-.128c-.119 0-.363.04-.455.073a1.82 1.82 0 00-.572.364.372.372 0 01-.098.078c-.009 0-.078.042-.154.093a.555.555 0 01-.184.094c-.043 0-.174.059-.365.163-.082.043-.088.045-.154.011-.127-.062-.16-.107-.16-.217-.001-.16.038-.214.178-.242.146-.03.271-.094.271-.137 0-.017.033-.045.072-.062.061-.024.096-.027.18-.01a.383.383 0 00.168.003c.127-.036.254-.108.266-.147.014-.038.105-.104.153-.104.013 0 .048.02.079.044l.059.04.119-.054c.126-.057.159-.085.143-.128-.009-.026.088-.089.139-.089.016 0 .055.028.086.062.043.051.062.06.109.049.149-.037.198-.062.226-.115.051-.109.222-.092.233.021.006.048.018.054.098.06.119.008.178-.009.229-.066.039-.043.053-.047.108-.027.084.027.114.055.114.098 0 .021.016.047.031.062.043.036.229.031.272-.008.03-.027.045-.027.137.004.08.028.104.045.109.086.017.112.159.171.269.107.057-.033.061-.033.143.021.084.056.095.069.089.136-.007.06.077.109.177.106.077-.002.104.008.164.065.061.057.066.073.049.107-.031.059-.027.078.023.125.033.03.066.041.119.036.06-.004.078.004.117.063.035.054.044.091.035.145-.01.068-.004.076.058.104.047.021.082.062.115.131l.049.099-.043.047c-.057.061-.041.121.039.164.086.043.166.312.104.349-.034.021-.021.146.019.181.021.021.047.034.058.034.038 0 .138.271.134.37-.003.104.057.203.122.203.021 0 .069.035.106.081.037.047.088.107.112.139a.212.212 0 01.048.119c0 .076.072.15.146.15.027 0 .074.021.105.047.029.026.076.064.105.088.027.021.054.058.054.082 0 .038.013.056.113.146.043.038.133.038.157-.001.011-.017.019-.013.027.008.008.022.027.029.062.022a.457.457 0 01.258.09c.028.034.185.038.218.005.022-.022.223-.017.381.011.059.014.09.006.133-.021a.57.57 0 01.271-.103c.114-.007.159-.028.202-.099.063-.104.17-.195.233-.204.059-.006.104-.063.123-.16a.389.389 0 01.095-.14c.053-.061.081-.109.081-.145 0-.03.023-.114.055-.185.041-.102.049-.14.032-.166-.013-.02-.017-.082-.011-.142.006-.08 0-.119-.029-.162a.231.231 0 01-.033-.12c.004-.05-.01-.082-.059-.127a.301.301 0 01-.062-.086c0-.039-.231-.253-.317-.294a.33.33 0 01-.1-.065c-.009-.017-.035-.028-.056-.028a.587.587 0 01-.199-.066c-.063-.028-.144-.036-.409-.037-.224-.001-.232.001-.386.075a1.238 1.238 0 00-.2.116c-.021.021-.053.039-.064.039-.039.001-.153.135-.153.18.001.091.104.088.287-.005.209-.105.303-.135.454-.136.517-.002.912.298.953.728.011.118.007.159-.025.234-.045.104-.244.331-.328.376-.279.148-.303.157-.543.188-.254.036-.286.032-.475-.045a1.875 1.875 0 01-.166-.086 1.781 1.781 0 00-.141-.081c-.16-.082-.476-.468-.552-.677-.063-.179-.162-.591-.163-.685a2.754 2.754 0 00-.133-.614 3.175 3.175 0 00-.258-.561c-.107-.198-.35-.445-.67-.687-.43-.323-.473-.347-.945-.529-.312-.119-.393-.145-.596-.172l-.307-.044c-.205-.032-.847-.025-.938.01-.106.039-.118.007-.026-.078.057-.051.084-.065.1-.049.035.034.121.024.195-.021.049-.03.065-.056.064-.101 0-.045.02-.076.066-.113.08-.062.127-.066.154-.021.014.025.039.031.104.021.099-.012.146-.045.146-.099 0-.022.013-.039.026-.039.017 0 .045-.02.064-.041.051-.054.104-.052.137.002.021.038.035.043.131.032.103-.012.222-.07.26-.13.021-.035.115-.012.125.033.021.078.328.035.354-.049.018-.051.102-.047.141.006.025.04.051.046.142.046.146-.005.216-.021.229-.059.013-.033.156-.041.156-.011 0 .011.015.035.029.051.057.056.262.012.393-.081.039-.028.047-.026.097.01.086.067.182.045.389-.091.052-.035.06-.035.106-.005.072.047.211.023.234-.04.026-.071.194-.16.272-.146.079.016.198-.05.198-.108 0-.022.027-.058.066-.082a.636.636 0 00.1-.082.132.132 0 01.086-.043c.07-.001.152-.091.142-.152-.015-.066.11-.274.174-.292.063-.019.118-.123.083-.164-.039-.047.016-.246.088-.319.062-.065.07-.129.025-.188-.039-.051-.04-.211-.001-.278.043-.075.036-.123-.032-.224-.051-.075-.062-.11-.062-.219 0-.118-.004-.131-.059-.161-.062-.037-.146-.17-.148-.231 0-.041-.06-.105-.096-.105a.613.613 0 01-.134-.12c-.091-.098-.122-.12-.159-.11-.025.007-.053.005-.061-.006a.282.282 0 00-.217-.108.314.314 0 01-.133-.032c-.039-.029-.063-.031-.155-.013a.526.526 0 01-.147.014c-.023-.006-.07.011-.117.041a.344.344 0 01-.115.054c-.021 0-.065.031-.103.07a.3.3 0 01-.108.082c-.026.007-.055.039-.07.084-.018.046-.045.083-.076.093-.031.013-.049.035-.049.068a.216.216 0 01-.04.103c-.074.088-.124.3-.128.53-.003.28.027.359.215.535.143.133.188.154.218.105.026-.043.005-.103-.087-.23-.146-.202-.154-.336-.047-.653.117-.345.407-.586.702-.587.142 0 .333.116.479.29.129.149.137.167.225.397.094.243.088.397-.021.733-.059.183-.166.38-.265.484-.229.249-.617.41-1.119.467-.304.032-.881.021-1.379-.029a1.253 1.253 0 00-.22-.01 3.323 3.323 0 01-.34.03c-.34.021-.448.044-1.008.199-.17.049-.516.231-.692.365-.144.108-.291.201-.323.201-.011 0 .041-.049.122-.119a.647.647 0 00.071-.084.924.924 0 01.144-.142 9.23 9.23 0 00.794-.855c.018-.023.059-.076.096-.115.062-.064.097-.125.272-.472.056-.106.124-.331.164-.534.011-.051.028-.23.04-.398.02-.303.011-.422-.05-.737-.011-.058-.022-.133-.031-.17-.006-.037-.019-.071-.028-.078-.011-.006-.02-.03-.02-.057 0-.024-.008-.055-.018-.063a.572.572 0 01-.045-.111c-.115-.386-.388-.732-1.009-1.288-.278-.249-.409-.529-.384-.813a.613.613 0 01.104-.328c.115-.192.26-.258.471-.211.181.04.229.044.244.021.033-.051-.018-.106-.146-.169-.188-.092-.346-.1-.49-.029z"/></svg>